# xmcd
#
# Track frame offsets:
#	150
#	17617
#	35567
#	50937
#	70245
#	90300
#	107320
#	122782
#	138375
#	162420
#	176582
#	192250
#	210975
#	227205
#	239425
#
# Disc length: 3492 seconds
#
# Revision: 1
# Processed by: cddbd v1.5.2PL0 Copyright (c) Steve Scherf et al.
# Submitted via: EasyCDDAExtractor 15.3.0.1
#
DISCID=cb0da20f
DTITLE=Mijares - 30 Exitos Insuperables - CD 1
DYEAR=2003
DGENRE=Latin
TTITLE0=Maria Bonita
TTITLE1=Corazon Salvaje
TTITLE2=Con Un Nudo En La Garganta
TTITLE3=Bella
TTITLE4=No Hace Falta
TTITLE5=No Se Murio El Amor
TTITLE6=Poco A Poco
TTITLE7=Siempre
TTITLE8=La Quiero A Morir
TTITLE9=Baño De Mujeres
TTITLE10=Para Amarnos Mas
TTITLE11=Persona A Persona
TTITLE12=A Corazon Abierto
TTITLE13=Soldado Del Amor
TTITLE14=Alfonsina Y El Mar
EXTD=
EXTT0=
EXTT1=
EXTT2=
EXTT3=
EXTT4=
EXTT5=
EXTT6=
EXTT7=
EXTT8=
EXTT9=
EXTT10=
EXTT11=
EXTT12=
EXTT13=
EXTT14=
PLAYORDER=
